<svg width="84" height="17" viewBox="0 0 84 17" fill="none" xmlns="http://www.w3.org/2000/svg">
<path d="M28.586 11.11C27.882 11.11 27.2917 11.0073 26.815 10.802C26.3457 10.5967 25.99 10.329 25.748 9.999C25.506 9.669 25.3777 9.317 25.363 8.943C25.363 8.88433 25.385 8.833 25.429 8.789C25.473 8.73767 25.528 8.712 25.594 8.712H26.771C26.8663 8.712 26.9397 8.734 26.991 8.778C27.0423 8.81467 27.09 8.86233 27.134 8.921C27.1853 9.04567 27.266 9.16667 27.376 9.284C27.4933 9.40133 27.651 9.50033 27.849 9.581C28.047 9.65433 28.2927 9.691 28.586 9.691C29.0627 9.691 29.4183 9.614 29.653 9.46C29.895 9.306 30.016 9.097 30.016 8.833C30.016 8.64233 29.95 8.48833 29.818 8.371C29.6933 8.25367 29.4917 8.14733 29.213 8.052C28.9417 7.95667 28.5787 7.854 28.124 7.744C27.574 7.62667 27.1047 7.47633 26.716 7.293C26.3347 7.10233 26.045 6.86033 25.847 6.567C25.6563 6.26633 25.561 5.896 25.561 5.456C25.561 5.016 25.682 4.62733 25.924 4.29C26.166 3.94533 26.507 3.67767 26.947 3.487C27.387 3.289 27.9113 3.19 28.52 3.19C29.0113 3.19 29.444 3.256 29.818 3.388C30.1993 3.52 30.5147 3.69233 30.764 3.905C31.0207 4.11767 31.215 4.345 31.347 4.587C31.479 4.829 31.5487 5.06367 31.556 5.291C31.556 5.34967 31.534 5.40467 31.49 5.456C31.446 5.5 31.391 5.522 31.325 5.522H30.093C30.0197 5.522 29.9537 5.50733 29.895 5.478C29.8363 5.44867 29.7887 5.39733 29.752 5.324C29.708 5.13333 29.576 4.96833 29.356 4.829C29.1433 4.68233 28.8647 4.609 28.52 4.609C28.1607 4.609 27.8747 4.675 27.662 4.807C27.4567 4.939 27.354 5.14067 27.354 5.412C27.354 5.588 27.4053 5.73833 27.508 5.863C27.618 5.98033 27.7977 6.08667 28.047 6.182C28.3037 6.27 28.641 6.369 29.059 6.479C29.7043 6.611 30.2287 6.76867 30.632 6.952C31.0353 7.13533 31.3323 7.37367 31.523 7.667C31.7137 7.953 31.809 8.316 31.809 8.756C31.809 9.24733 31.6697 9.669 31.391 10.021C31.1197 10.373 30.742 10.6443 30.258 10.835C29.7813 11.0183 29.224 11.11 28.586 11.11ZM34.4418 11C34.3391 11 34.2584 10.9743 34.1998 10.923C34.1484 10.8717 34.1081 10.8057 34.0788 10.725L32.5058 5.632C32.4911 5.59533 32.4838 5.55867 32.4838 5.522C32.4838 5.456 32.5058 5.401 32.5498 5.357C32.6011 5.30567 32.6598 5.28 32.7258 5.28H33.6938C33.7891 5.28 33.8624 5.30567 33.9138 5.357C33.9651 5.40833 33.9981 5.456 34.0128 5.5L35.0138 8.899L36.0808 5.522C36.0954 5.47067 36.1284 5.41933 36.1798 5.368C36.2384 5.30933 36.3191 5.28 36.4218 5.28H37.0488C37.1514 5.28 37.2284 5.30933 37.2798 5.368C37.3384 5.41933 37.3751 5.47067 37.3898 5.522L38.4568 8.899L39.4578 5.5C39.4651 5.456 39.4944 5.40833 39.5458 5.357C39.6044 5.30567 39.6778 5.28 39.7658 5.28H40.7338C40.7998 5.28 40.8548 5.30567 40.8988 5.357C40.9501 5.401 40.9758 5.456 40.9758 5.522C40.9758 5.55867 40.9721 5.59533 40.9648 5.632L39.3808 10.725C39.3588 10.8057 39.3184 10.8717 39.2598 10.923C39.2084 10.9743 39.1314 11 39.0288 11H38.1818C38.0791 11 37.9984 10.9743 37.9398 10.923C37.8811 10.8717 37.8371 10.8057 37.8078 10.725L36.7408 7.469L35.6518 10.725C35.6298 10.8057 35.5894 10.8717 35.5308 10.923C35.4721 10.9743 35.3914 11 35.2888 11H34.4418ZM44.3798 11.11C43.5364 11.11 42.8654 10.8753 42.3668 10.406C41.8754 9.93667 41.6151 9.25467 41.5858 8.36C41.5858 8.30133 41.5858 8.22433 41.5858 8.129C41.5858 8.02633 41.5858 7.94567 41.5858 7.887C41.6151 7.32233 41.7434 6.83833 41.9708 6.435C42.1981 6.02433 42.5171 5.71267 42.9278 5.5C43.3384 5.28 43.8188 5.17 44.3688 5.17C44.9848 5.17 45.4981 5.29833 45.9088 5.555C46.3268 5.80433 46.6384 6.149 46.8438 6.589C47.0564 7.02167 47.1628 7.52033 47.1628 8.085V8.338C47.1628 8.41133 47.1334 8.47367 47.0748 8.525C47.0234 8.57633 46.9611 8.602 46.8878 8.602H43.2908C43.2908 8.60933 43.2908 8.624 43.2908 8.646C43.2908 8.66067 43.2908 8.67533 43.2908 8.69C43.2981 8.92467 43.3421 9.141 43.4228 9.339C43.5108 9.52967 43.6318 9.68367 43.7858 9.801C43.9471 9.91833 44.1378 9.977 44.3578 9.977C44.5411 9.977 44.6914 9.95133 44.8088 9.9C44.9261 9.84867 45.0214 9.78633 45.0948 9.713C45.1754 9.63967 45.2341 9.57733 45.2708 9.526C45.3368 9.45267 45.3881 9.40867 45.4248 9.394C45.4688 9.372 45.5348 9.361 45.6228 9.361H46.7668C46.8401 9.361 46.8988 9.383 46.9428 9.427C46.9941 9.46367 47.0161 9.51867 47.0088 9.592C47.0014 9.70933 46.9391 9.856 46.8218 10.032C46.7118 10.2007 46.5468 10.3693 46.3268 10.538C46.1068 10.6993 45.8318 10.835 45.5018 10.945C45.1791 11.055 44.8051 11.11 44.3798 11.11ZM43.2908 7.601H45.4468V7.579C45.4468 7.315 45.4028 7.08767 45.3148 6.897C45.2341 6.699 45.1131 6.545 44.9518 6.435C44.7904 6.325 44.5961 6.27 44.3688 6.27C44.1414 6.27 43.9471 6.325 43.7858 6.435C43.6244 6.545 43.4998 6.699 43.4118 6.897C43.3311 7.08767 43.2908 7.315 43.2908 7.579V7.601ZM49.9453 11.11C49.5567 11.11 49.2083 11.0367 48.9003 10.89C48.5923 10.736 48.3467 10.5307 48.1633 10.274C47.98 10.0173 47.8883 9.73133 47.8883 9.416C47.8883 8.89533 48.0973 8.48467 48.5153 8.184C48.9407 7.88333 49.498 7.678 50.1873 7.568L51.6283 7.359V7.161C51.6283 6.875 51.5623 6.655 51.4303 6.501C51.2983 6.347 51.0673 6.27 50.7373 6.27C50.4953 6.27 50.301 6.31767 50.1543 6.413C50.0077 6.50833 49.894 6.633 49.8133 6.787C49.7547 6.88233 49.6703 6.93 49.5603 6.93H48.5153C48.4347 6.93 48.3723 6.908 48.3283 6.864C48.2843 6.81267 48.266 6.754 48.2733 6.688C48.2733 6.56333 48.321 6.41667 48.4163 6.248C48.5117 6.07933 48.6583 5.91433 48.8563 5.753C49.0543 5.58433 49.3073 5.445 49.6153 5.335C49.9233 5.225 50.301 5.17 50.7483 5.17C51.2103 5.17 51.6063 5.225 51.9363 5.335C52.2663 5.445 52.5303 5.599 52.7283 5.797C52.9263 5.995 53.073 6.226 53.1683 6.49C53.2637 6.74667 53.3113 7.02533 53.3113 7.326V10.725C53.3113 10.8057 53.2857 10.8717 53.2343 10.923C53.183 10.9743 53.117 11 53.0363 11H51.9583C51.885 11 51.8227 10.9743 51.7713 10.923C51.72 10.8717 51.6943 10.8057 51.6943 10.725V10.318C51.599 10.4573 51.4707 10.5893 51.3093 10.714C51.148 10.8313 50.9537 10.9267 50.7263 11C50.5063 11.0733 50.246 11.11 49.9453 11.11ZM50.3853 9.966C50.6273 9.966 50.8437 9.91467 51.0343 9.812C51.225 9.70933 51.3753 9.55167 51.4853 9.339C51.5953 9.12633 51.6503 8.85867 51.6503 8.536V8.349L50.6273 8.514C50.2313 8.58 49.9417 8.679 49.7583 8.811C49.575 8.943 49.4833 9.10433 49.4833 9.295C49.4833 9.43433 49.5237 9.55533 49.6043 9.658C49.6923 9.76067 49.806 9.83767 49.9453 9.889C50.0847 9.94033 50.2313 9.966 50.3853 9.966ZM57.3502 11C56.8956 11 56.5069 10.9267 56.1842 10.78C55.8616 10.626 55.6159 10.3913 55.4472 10.076C55.2859 9.76067 55.2052 9.36467 55.2052 8.888V6.578H54.3472C54.2666 6.578 54.2006 6.55233 54.1492 6.501C54.0979 6.44967 54.0722 6.38367 54.0722 6.303V5.555C54.0722 5.47433 54.0979 5.40833 54.1492 5.357C54.2006 5.30567 54.2666 5.28 54.3472 5.28H55.2052V3.465C55.2052 3.38433 55.2309 3.31833 55.2822 3.267C55.3409 3.21567 55.4069 3.19 55.4802 3.19H56.5582C56.6389 3.19 56.7049 3.21567 56.7562 3.267C56.8076 3.31833 56.8332 3.38433 56.8332 3.465V5.28H58.2082C58.2816 5.28 58.3439 5.30567 58.3952 5.357C58.4466 5.40833 58.4722 5.47433 58.4722 5.555V6.303C58.4722 6.38367 58.4466 6.44967 58.3952 6.501C58.3439 6.55233 58.2816 6.578 58.2082 6.578H56.8332V8.756C56.8332 9.03467 56.8809 9.25467 56.9762 9.416C57.0789 9.57 57.2549 9.647 57.5042 9.647H58.3072C58.3806 9.647 58.4429 9.67267 58.4942 9.724C58.5456 9.77533 58.5712 9.83767 58.5712 9.911V10.725C58.5712 10.8057 58.5456 10.8717 58.4942 10.923C58.4429 10.9743 58.3806 11 58.3072 11H57.3502ZM59.9269 11C59.8462 11 59.7802 10.9743 59.7289 10.923C59.6776 10.8717 59.6519 10.8057 59.6519 10.725V3.575C59.6519 3.49433 59.6776 3.42833 59.7289 3.377C59.7802 3.32567 59.8462 3.3 59.9269 3.3H63.1939C63.8026 3.3 64.3012 3.388 64.6899 3.564C65.0786 3.74 65.3646 3.98933 65.5479 4.312C65.7386 4.63467 65.8339 5.01233 65.8339 5.445C65.8339 5.71633 65.7826 5.95467 65.6799 6.16C65.5846 6.36533 65.4636 6.534 65.3169 6.666C65.1776 6.798 65.0419 6.897 64.9099 6.963C65.1959 7.095 65.4452 7.315 65.6579 7.623C65.8779 7.92367 65.9879 8.283 65.9879 8.701C65.9879 9.163 65.8852 9.56633 65.6799 9.911C65.4746 10.2557 65.1702 10.5233 64.7669 10.714C64.3636 10.9047 63.8722 11 63.2929 11H59.9269ZM61.4009 9.713H63.0839C63.4432 9.713 63.7146 9.614 63.8979 9.416C64.0812 9.21067 64.1729 8.96867 64.1729 8.69C64.1729 8.404 64.0776 8.16567 63.8869 7.975C63.7036 7.777 63.4359 7.678 63.0839 7.678H61.4009V9.713ZM61.4009 6.413H62.9849C63.3296 6.413 63.5862 6.32867 63.7549 6.16C63.9309 5.984 64.0189 5.76033 64.0189 5.489C64.0189 5.21767 63.9309 5.00133 63.7549 4.84C63.5862 4.67133 63.3296 4.587 62.9849 4.587H61.4009V6.413ZM69.7313 11.11C68.888 11.11 68.217 10.8753 67.7183 10.406C67.227 9.93667 66.9667 9.25467 66.9373 8.36C66.9373 8.30133 66.9373 8.22433 66.9373 8.129C66.9373 8.02633 66.9373 7.94567 66.9373 7.887C66.9667 7.32233 67.095 6.83833 67.3223 6.435C67.5497 6.02433 67.8687 5.71267 68.2793 5.5C68.69 5.28 69.1703 5.17 69.7203 5.17C70.3363 5.17 70.8497 5.29833 71.2603 5.555C71.6783 5.80433 71.99 6.149 72.1953 6.589C72.408 7.02167 72.5143 7.52033 72.5143 8.085V8.338C72.5143 8.41133 72.485 8.47367 72.4263 8.525C72.375 8.57633 72.3127 8.602 72.2393 8.602H68.6423C68.6423 8.60933 68.6423 8.624 68.6423 8.646C68.6423 8.66067 68.6423 8.67533 68.6423 8.69C68.6497 8.92467 68.6937 9.141 68.7743 9.339C68.8623 9.52967 68.9833 9.68367 69.1373 9.801C69.2987 9.91833 69.4893 9.977 69.7093 9.977C69.8927 9.977 70.043 9.95133 70.1603 9.9C70.2777 9.84867 70.373 9.78633 70.4463 9.713C70.527 9.63967 70.5857 9.57733 70.6223 9.526C70.6883 9.45267 70.7397 9.40867 70.7763 9.394C70.8203 9.372 70.8863 9.361 70.9743 9.361H72.1183C72.1917 9.361 72.2503 9.383 72.2943 9.427C72.3457 9.46367 72.3677 9.51867 72.3603 9.592C72.353 9.70933 72.2907 9.856 72.1733 10.032C72.0633 10.2007 71.8983 10.3693 71.6783 10.538C71.4583 10.6993 71.1833 10.835 70.8533 10.945C70.5307 11.055 70.1567 11.11 69.7313 11.11ZM68.6423 7.601H70.7983V7.579C70.7983 7.315 70.7543 7.08767 70.6663 6.897C70.5857 6.699 70.4647 6.545 70.3033 6.435C70.142 6.325 69.9477 6.27 69.7203 6.27C69.493 6.27 69.2987 6.325 69.1373 6.435C68.976 6.545 68.8513 6.699 68.7633 6.897C68.6827 7.08767 68.6423 7.315 68.6423 7.579V7.601ZM76.3424 11C75.8878 11 75.4991 10.9267 75.1764 10.78C74.8538 10.626 74.6081 10.3913 74.4394 10.076C74.2781 9.76067 74.1974 9.36467 74.1974 8.888V6.578H73.3394C73.2588 6.578 73.1928 6.55233 73.1414 6.501C73.0901 6.44967 73.0644 6.38367 73.0644 6.303V5.555C73.0644 5.47433 73.0901 5.40833 73.1414 5.357C73.1928 5.30567 73.2588 5.28 73.3394 5.28H74.1974V3.465C74.1974 3.38433 74.2231 3.31833 74.2744 3.267C74.3331 3.21567 74.3991 3.19 74.4724 3.19H75.5504C75.6311 3.19 75.6971 3.21567 75.7484 3.267C75.7998 3.31833 75.8254 3.38433 75.8254 3.465V5.28H77.2004C77.2738 5.28 77.3361 5.30567 77.3874 5.357C77.4388 5.40833 77.4644 5.47433 77.4644 5.555V6.303C77.4644 6.38367 77.4388 6.44967 77.3874 6.501C77.3361 6.55233 77.2738 6.578 77.2004 6.578H75.8254V8.756C75.8254 9.03467 75.8731 9.25467 75.9684 9.416C76.0711 9.57 76.2471 9.647 76.4964 9.647H77.2994C77.3728 9.647 77.4351 9.67267 77.4864 9.724C77.5378 9.77533 77.5634 9.83767 77.5634 9.911V10.725C77.5634 10.8057 77.5378 10.8717 77.4864 10.923C77.4351 10.9743 77.3728 11 77.2994 11H76.3424ZM80.7781 11.11C80.3234 11.11 79.9311 11.0587 79.6011 10.956C79.2784 10.846 79.0144 10.714 78.8091 10.56C78.6111 10.406 78.4607 10.252 78.3581 10.098C78.2627 9.93667 78.2114 9.801 78.2041 9.691C78.1967 9.61033 78.2224 9.54433 78.2811 9.493C78.3397 9.44167 78.3984 9.416 78.4571 9.416H79.5241C79.5461 9.416 79.5681 9.41967 79.5901 9.427C79.6121 9.43433 79.6341 9.45267 79.6561 9.482C79.7514 9.548 79.8504 9.625 79.9531 9.713C80.0557 9.79367 80.1731 9.86333 80.3051 9.922C80.4444 9.98067 80.6167 10.01 80.8221 10.01C81.0641 10.01 81.2694 9.96233 81.4381 9.867C81.6067 9.76433 81.6911 9.62133 81.6911 9.438C81.6911 9.306 81.6507 9.196 81.5701 9.108C81.4967 9.02 81.3537 8.93933 81.1411 8.866C80.9284 8.79267 80.6131 8.712 80.1951 8.624C79.7991 8.536 79.4617 8.41867 79.1831 8.272C78.9044 8.12533 78.6954 7.942 78.5561 7.722C78.4167 7.49467 78.3471 7.22333 78.3471 6.908C78.3471 6.622 78.4351 6.347 78.6111 6.083C78.7944 5.819 79.0621 5.60267 79.4141 5.434C79.7661 5.258 80.2061 5.17 80.7341 5.17C81.1374 5.17 81.4894 5.22133 81.7901 5.324C82.0981 5.41933 82.3547 5.544 82.5601 5.698C82.7654 5.84467 82.9194 5.99867 83.0221 6.16C83.1321 6.314 83.1907 6.44967 83.1981 6.567C83.2054 6.64033 83.1834 6.70267 83.1321 6.754C83.0807 6.80533 83.0221 6.831 82.9561 6.831H81.9771C81.9404 6.831 81.9074 6.82733 81.8781 6.82C81.8487 6.80533 81.8231 6.787 81.8011 6.765C81.7131 6.70633 81.6214 6.64033 81.5261 6.567C81.4381 6.48633 81.3317 6.41667 81.2071 6.358C81.0824 6.29933 80.9211 6.27 80.7231 6.27C80.4811 6.27 80.2941 6.325 80.1621 6.435C80.0374 6.53767 79.9751 6.66967 79.9751 6.831C79.9751 6.93367 80.0081 7.029 80.0741 7.117C80.1401 7.205 80.2757 7.28567 80.4811 7.359C80.6864 7.43233 80.9981 7.50933 81.4161 7.59C81.9147 7.678 82.3107 7.81 82.6041 7.986C82.8974 8.162 83.1064 8.36733 83.2311 8.602C83.3631 8.82933 83.4291 9.075 83.4291 9.339C83.4291 9.68367 83.3264 9.99167 83.1211 10.263C82.9157 10.527 82.6151 10.736 82.2191 10.89C81.8304 11.0367 81.3501 11.11 80.7781 11.11Z" fill="#1F1E1F"/>
<path d="M22 12.0039C22 11.776 21.9841 11.5446 21.9511 11.3114L21.0044 4.64334C20.7745 2.81653 20.0275 0.043396 10.9845 0.043396C1.96386 0.043396 1.25439 2.79814 0.992427 4.64445L0.0502582 11.3125C0.016296 11.5479 0 11.7796 0 12.0113C0 14.4571 1.83649 16.5204 4.17212 16.5204C5.75972 16.5158 7.21411 15.5457 7.9105 14.0194L8.38554 12.9896H13.642L14.1153 14.0194C14.8124 15.5457 16.2582 16.516 17.8468 16.5204C20.1893 16.5204 22 14.4534 22 12.0039ZM20.3477 12.0039C20.3477 12.6656 20.1269 13.3114 19.7191 13.823C19.2489 14.4166 18.558 14.7565 17.832 14.7565C17.8271 14.7565 17.8223 14.7564 17.8174 14.7564C16.8621 14.7564 16.0015 14.1771 15.5713 13.2437L14.9406 11.881C14.7849 11.478 14.4028 11.2242 13.9828 11.2242H8.04475C7.62582 11.2242 7.24303 11.4782 7.05714 11.8796L6.42651 13.2423C6.26571 13.591 5.61618 14.755 4.15732 14.755C3.43133 14.755 2.74458 14.4108 2.27849 13.8215C1.87057 13.3099 1.64991 12.6641 1.64991 12.0024C1.64991 11.8613 1.65997 11.7194 1.6804 11.578L2.62704 4.90999C2.79518 3.73968 3.58348 2.82021 4.64028 2.56643C6.7401 2.06183 8.8778 1.80879 10.9845 1.80879C13.0912 1.80879 15.2599 2.06164 17.3563 2.56717C18.4148 2.82003 19.2021 3.73968 19.3701 4.91183L20.3167 11.5799C20.3683 11.7207 20.3477 11.8605 20.3477 12.0039ZM13.7384 7.69342C13.1318 7.69342 12.6678 8.22231 12.6678 8.87035C12.6678 9.5184 13.1625 10.0473 13.7384 10.0473C14.3143 10.0473 14.809 9.5184 14.809 8.87035C14.809 8.22231 14.3752 7.69342 13.7384 7.69342ZM8.50603 6.22226L7.40585 6.22186L7.40448 5.04534C7.40448 4.55985 7.03339 4.16264 6.579 4.16264C6.15491 4.16264 5.75215 4.55985 5.75215 5.04534L5.75342 6.2219L4.6506 6.22226C4.19621 6.22226 3.82513 6.61948 3.82513 7.10496C3.82513 7.59044 4.19587 7.98766 4.6506 7.98766L5.75353 7.9873L5.75215 9.16458C5.75215 9.65007 6.12461 10.0473 6.579 10.0473C7.03339 10.0473 7.40448 9.65007 7.40448 9.16458L7.40574 7.98729L8.50603 7.98766C8.96041 7.98766 9.33287 7.59044 9.33287 7.10496C9.33219 6.61948 8.9914 6.22226 8.50603 6.22226ZM15.9415 4.16264C15.3349 4.16264 14.8709 4.69152 14.8709 5.33957C14.8709 5.98761 15.3656 6.5165 15.9415 6.5165C16.548 6.5165 17.0121 5.98761 17.0121 5.33957C17.0121 4.69152 16.5783 4.16264 15.9415 4.16264Z" fill="#22D37D"/>
</svg>
