<svg width="85" height="17" viewBox="0 0 85 17" fill="none" xmlns="http://www.w3.org/2000/svg">
<path d="M28.9381 11.11C28.2341 11.11 27.6437 11.0073 27.1671 10.802C26.6977 10.5967 26.3421 10.329 26.1001 9.999C25.8581 9.669 25.7297 9.317 25.7151 8.943C25.7151 8.88433 25.7371 8.833 25.7811 8.789C25.8251 8.73767 25.8801 8.712 25.9461 8.712H27.1231C27.2184 8.712 27.2917 8.734 27.3431 8.778C27.3944 8.81467 27.4421 8.86233 27.4861 8.921C27.5374 9.04567 27.6181 9.16667 27.7281 9.284C27.8454 9.40133 28.0031 9.50033 28.2011 9.581C28.3991 9.65433 28.6447 9.691 28.9381 9.691C29.4147 9.691 29.7704 9.614 30.0051 9.46C30.2471 9.306 30.3681 9.097 30.3681 8.833C30.3681 8.64233 30.3021 8.48833 30.1701 8.371C30.0454 8.25367 29.8437 8.14733 29.5651 8.052C29.2937 7.95667 28.9307 7.854 28.4761 7.744C27.9261 7.62667 27.4567 7.47633 27.0681 7.293C26.6867 7.10233 26.3971 6.86033 26.1991 6.567C26.0084 6.26633 25.9131 5.896 25.9131 5.456C25.9131 5.016 26.0341 4.62733 26.2761 4.29C26.5181 3.94533 26.8591 3.67767 27.2991 3.487C27.7391 3.289 28.2634 3.19 28.8721 3.19C29.3634 3.19 29.7961 3.256 30.1701 3.388C30.5514 3.52 30.8667 3.69233 31.1161 3.905C31.3727 4.11767 31.5671 4.345 31.6991 4.587C31.8311 4.829 31.9007 5.06367 31.9081 5.291C31.9081 5.34967 31.8861 5.40467 31.8421 5.456C31.7981 5.5 31.7431 5.522 31.6771 5.522H30.4451C30.3717 5.522 30.3057 5.50733 30.2471 5.478C30.1884 5.44867 30.1407 5.39733 30.1041 5.324C30.0601 5.13333 29.9281 4.96833 29.7081 4.829C29.4954 4.68233 29.2167 4.609 28.8721 4.609C28.5127 4.609 28.2267 4.675 28.0141 4.807C27.8087 4.939 27.7061 5.14067 27.7061 5.412C27.7061 5.588 27.7574 5.73833 27.8601 5.863C27.9701 5.98033 28.1497 6.08667 28.3991 6.182C28.6557 6.27 28.9931 6.369 29.4111 6.479C30.0564 6.611 30.5807 6.76867 30.9841 6.952C31.3874 7.13533 31.6844 7.37367 31.8751 7.667C32.0657 7.953 32.1611 8.316 32.1611 8.756C32.1611 9.24733 32.0217 9.669 31.7431 10.021C31.4717 10.373 31.0941 10.6443 30.6101 10.835C30.1334 11.0183 29.5761 11.11 28.9381 11.11ZM34.7939 11C34.6912 11 34.6105 10.9743 34.5519 10.923C34.5005 10.8717 34.4602 10.8057 34.4309 10.725L32.8579 5.632C32.8432 5.59533 32.8359 5.55867 32.8359 5.522C32.8359 5.456 32.8579 5.401 32.9019 5.357C32.9532 5.30567 33.0119 5.28 33.0779 5.28H34.0459C34.1412 5.28 34.2145 5.30567 34.2659 5.357C34.3172 5.40833 34.3502 5.456 34.3649 5.5L35.3659 8.899L36.4329 5.522C36.4475 5.47067 36.4805 5.41933 36.5319 5.368C36.5905 5.30933 36.6712 5.28 36.7739 5.28H37.4009C37.5035 5.28 37.5805 5.30933 37.6319 5.368C37.6905 5.41933 37.7272 5.47067 37.7419 5.522L38.8089 8.899L39.8099 5.5C39.8172 5.456 39.8465 5.40833 39.8979 5.357C39.9565 5.30567 40.0299 5.28 40.1179 5.28H41.0859C41.1519 5.28 41.2069 5.30567 41.2509 5.357C41.3022 5.401 41.3279 5.456 41.3279 5.522C41.3279 5.55867 41.3242 5.59533 41.3169 5.632L39.7329 10.725C39.7109 10.8057 39.6705 10.8717 39.6119 10.923C39.5605 10.9743 39.4835 11 39.3809 11H38.5339C38.4312 11 38.3505 10.9743 38.2919 10.923C38.2332 10.8717 38.1892 10.8057 38.1599 10.725L37.0929 7.469L36.0039 10.725C35.9819 10.8057 35.9415 10.8717 35.8829 10.923C35.8242 10.9743 35.7435 11 35.6409 11H34.7939ZM44.7318 11.11C43.8885 11.11 43.2175 10.8753 42.7188 10.406C42.2275 9.93667 41.9672 9.25467 41.9378 8.36C41.9378 8.30133 41.9378 8.22433 41.9378 8.129C41.9378 8.02633 41.9378 7.94567 41.9378 7.887C41.9672 7.32233 42.0955 6.83833 42.3228 6.435C42.5502 6.02433 42.8692 5.71267 43.2798 5.5C43.6905 5.28 44.1708 5.17 44.7208 5.17C45.3368 5.17 45.8502 5.29833 46.2608 5.555C46.6788 5.80433 46.9905 6.149 47.1958 6.589C47.4085 7.02167 47.5148 7.52033 47.5148 8.085V8.338C47.5148 8.41133 47.4855 8.47367 47.4268 8.525C47.3755 8.57633 47.3132 8.602 47.2398 8.602H43.6428C43.6428 8.60933 43.6428 8.624 43.6428 8.646C43.6428 8.66067 43.6428 8.67533 43.6428 8.69C43.6502 8.92467 43.6942 9.141 43.7748 9.339C43.8628 9.52967 43.9838 9.68367 44.1378 9.801C44.2992 9.91833 44.4898 9.977 44.7098 9.977C44.8932 9.977 45.0435 9.95133 45.1608 9.9C45.2782 9.84867 45.3735 9.78633 45.4468 9.713C45.5275 9.63967 45.5862 9.57733 45.6228 9.526C45.6888 9.45267 45.7402 9.40867 45.7768 9.394C45.8208 9.372 45.8868 9.361 45.9748 9.361H47.1188C47.1922 9.361 47.2508 9.383 47.2948 9.427C47.3462 9.46367 47.3682 9.51867 47.3608 9.592C47.3535 9.70933 47.2912 9.856 47.1738 10.032C47.0638 10.2007 46.8988 10.3693 46.6788 10.538C46.4588 10.6993 46.1838 10.835 45.8538 10.945C45.5312 11.055 45.1572 11.11 44.7318 11.11ZM43.6428 7.601H45.7988V7.579C45.7988 7.315 45.7548 7.08767 45.6668 6.897C45.5862 6.699 45.4652 6.545 45.3038 6.435C45.1425 6.325 44.9482 6.27 44.7208 6.27C44.4935 6.27 44.2992 6.325 44.1378 6.435C43.9765 6.545 43.8518 6.699 43.7638 6.897C43.6832 7.08767 43.6428 7.315 43.6428 7.579V7.601ZM50.2974 11.11C49.9088 11.11 49.5604 11.0367 49.2524 10.89C48.9444 10.736 48.6988 10.5307 48.5154 10.274C48.3321 10.0173 48.2404 9.73133 48.2404 9.416C48.2404 8.89533 48.4494 8.48467 48.8674 8.184C49.2928 7.88333 49.8501 7.678 50.5394 7.568L51.9804 7.359V7.161C51.9804 6.875 51.9144 6.655 51.7824 6.501C51.6504 6.347 51.4194 6.27 51.0894 6.27C50.8474 6.27 50.6531 6.31767 50.5064 6.413C50.3598 6.50833 50.2461 6.633 50.1654 6.787C50.1068 6.88233 50.0224 6.93 49.9124 6.93H48.8674C48.7868 6.93 48.7244 6.908 48.6804 6.864C48.6364 6.81267 48.6181 6.754 48.6254 6.688C48.6254 6.56333 48.6731 6.41667 48.7684 6.248C48.8638 6.07933 49.0104 5.91433 49.2084 5.753C49.4064 5.58433 49.6594 5.445 49.9674 5.335C50.2754 5.225 50.6531 5.17 51.1004 5.17C51.5624 5.17 51.9584 5.225 52.2884 5.335C52.6184 5.445 52.8824 5.599 53.0804 5.797C53.2784 5.995 53.4251 6.226 53.5204 6.49C53.6158 6.74667 53.6634 7.02533 53.6634 7.326V10.725C53.6634 10.8057 53.6378 10.8717 53.5864 10.923C53.5351 10.9743 53.4691 11 53.3884 11H52.3104C52.2371 11 52.1748 10.9743 52.1234 10.923C52.0721 10.8717 52.0464 10.8057 52.0464 10.725V10.318C51.9511 10.4573 51.8228 10.5893 51.6614 10.714C51.5001 10.8313 51.3058 10.9267 51.0784 11C50.8584 11.0733 50.5981 11.11 50.2974 11.11ZM50.7374 9.966C50.9794 9.966 51.1958 9.91467 51.3864 9.812C51.5771 9.70933 51.7274 9.55167 51.8374 9.339C51.9474 9.12633 52.0024 8.85867 52.0024 8.536V8.349L50.9794 8.514C50.5834 8.58 50.2938 8.679 50.1104 8.811C49.9271 8.943 49.8354 9.10433 49.8354 9.295C49.8354 9.43433 49.8758 9.55533 49.9564 9.658C50.0444 9.76067 50.1581 9.83767 50.2974 9.889C50.4368 9.94033 50.5834 9.966 50.7374 9.966ZM57.7023 11C57.2476 11 56.859 10.9267 56.5363 10.78C56.2136 10.626 55.968 10.3913 55.7993 10.076C55.638 9.76067 55.5573 9.36467 55.5573 8.888V6.578H54.6993C54.6186 6.578 54.5526 6.55233 54.5013 6.501C54.45 6.44967 54.4243 6.38367 54.4243 6.303V5.555C54.4243 5.47433 54.45 5.40833 54.5013 5.357C54.5526 5.30567 54.6186 5.28 54.6993 5.28H55.5573V3.465C55.5573 3.38433 55.583 3.31833 55.6343 3.267C55.693 3.21567 55.759 3.19 55.8323 3.19H56.9103C56.991 3.19 57.057 3.21567 57.1083 3.267C57.1596 3.31833 57.1853 3.38433 57.1853 3.465V5.28H58.5603C58.6336 5.28 58.696 5.30567 58.7473 5.357C58.7986 5.40833 58.8243 5.47433 58.8243 5.555V6.303C58.8243 6.38367 58.7986 6.44967 58.7473 6.501C58.696 6.55233 58.6336 6.578 58.5603 6.578H57.1853V8.756C57.1853 9.03467 57.233 9.25467 57.3283 9.416C57.431 9.57 57.607 9.647 57.8563 9.647H58.6593C58.7326 9.647 58.795 9.67267 58.8463 9.724C58.8976 9.77533 58.9233 9.83767 58.9233 9.911V10.725C58.9233 10.8057 58.8976 10.8717 58.8463 10.923C58.795 10.9743 58.7326 11 58.6593 11H57.7023ZM60.279 11C60.1983 11 60.1323 10.9743 60.081 10.923C60.0296 10.8717 60.004 10.8057 60.004 10.725V3.575C60.004 3.49433 60.0296 3.42833 60.081 3.377C60.1323 3.32567 60.1983 3.3 60.279 3.3H63.546C64.1546 3.3 64.6533 3.388 65.042 3.564C65.4306 3.74 65.7166 3.98933 65.9 4.312C66.0906 4.63467 66.186 5.01233 66.186 5.445C66.186 5.71633 66.1346 5.95467 66.032 6.16C65.9366 6.36533 65.8156 6.534 65.669 6.666C65.5296 6.798 65.394 6.897 65.262 6.963C65.548 7.095 65.7973 7.315 66.01 7.623C66.23 7.92367 66.34 8.283 66.34 8.701C66.34 9.163 66.2373 9.56633 66.032 9.911C65.8266 10.2557 65.5223 10.5233 65.119 10.714C64.7156 10.9047 64.2243 11 63.645 11H60.279ZM61.753 9.713H63.436C63.7953 9.713 64.0666 9.614 64.25 9.416C64.4333 9.21067 64.525 8.96867 64.525 8.69C64.525 8.404 64.4296 8.16567 64.239 7.975C64.0556 7.777 63.788 7.678 63.436 7.678H61.753V9.713ZM61.753 6.413H63.337C63.6816 6.413 63.9383 6.32867 64.107 6.16C64.283 5.984 64.371 5.76033 64.371 5.489C64.371 5.21767 64.283 5.00133 64.107 4.84C63.9383 4.67133 63.6816 4.587 63.337 4.587H61.753V6.413ZM70.0834 11.11C69.2401 11.11 68.5691 10.8753 68.0704 10.406C67.5791 9.93667 67.3187 9.25467 67.2894 8.36C67.2894 8.30133 67.2894 8.22433 67.2894 8.129C67.2894 8.02633 67.2894 7.94567 67.2894 7.887C67.3187 7.32233 67.4471 6.83833 67.6744 6.435C67.9017 6.02433 68.2207 5.71267 68.6314 5.5C69.0421 5.28 69.5224 5.17 70.0724 5.17C70.6884 5.17 71.2017 5.29833 71.6124 5.555C72.0304 5.80433 72.3421 6.149 72.5474 6.589C72.7601 7.02167 72.8664 7.52033 72.8664 8.085V8.338C72.8664 8.41133 72.8371 8.47367 72.7784 8.525C72.7271 8.57633 72.6647 8.602 72.5914 8.602H68.9944C68.9944 8.60933 68.9944 8.624 68.9944 8.646C68.9944 8.66067 68.9944 8.67533 68.9944 8.69C69.0017 8.92467 69.0457 9.141 69.1264 9.339C69.2144 9.52967 69.3354 9.68367 69.4894 9.801C69.6507 9.91833 69.8414 9.977 70.0614 9.977C70.2447 9.977 70.3951 9.95133 70.5124 9.9C70.6297 9.84867 70.7251 9.78633 70.7984 9.713C70.8791 9.63967 70.9377 9.57733 70.9744 9.526C71.0404 9.45267 71.0917 9.40867 71.1284 9.394C71.1724 9.372 71.2384 9.361 71.3264 9.361H72.4704C72.5437 9.361 72.6024 9.383 72.6464 9.427C72.6977 9.46367 72.7197 9.51867 72.7124 9.592C72.7051 9.70933 72.6427 9.856 72.5254 10.032C72.4154 10.2007 72.2504 10.3693 72.0304 10.538C71.8104 10.6993 71.5354 10.835 71.2054 10.945C70.8827 11.055 70.5087 11.11 70.0834 11.11ZM68.9944 7.601H71.1504V7.579C71.1504 7.315 71.1064 7.08767 71.0184 6.897C70.9377 6.699 70.8167 6.545 70.6554 6.435C70.4941 6.325 70.2997 6.27 70.0724 6.27C69.8451 6.27 69.6507 6.325 69.4894 6.435C69.3281 6.545 69.2034 6.699 69.1154 6.897C69.0347 7.08767 68.9944 7.315 68.9944 7.579V7.601ZM76.6945 11C76.2398 11 75.8512 10.9267 75.5285 10.78C75.2058 10.626 74.9602 10.3913 74.7915 10.076C74.6302 9.76067 74.5495 9.36467 74.5495 8.888V6.578H73.6915C73.6108 6.578 73.5448 6.55233 73.4935 6.501C73.4422 6.44967 73.4165 6.38367 73.4165 6.303V5.555C73.4165 5.47433 73.4422 5.40833 73.4935 5.357C73.5448 5.30567 73.6108 5.28 73.6915 5.28H74.5495V3.465C74.5495 3.38433 74.5752 3.31833 74.6265 3.267C74.6852 3.21567 74.7512 3.19 74.8245 3.19H75.9025C75.9832 3.19 76.0492 3.21567 76.1005 3.267C76.1518 3.31833 76.1775 3.38433 76.1775 3.465V5.28H77.5525C77.6258 5.28 77.6882 5.30567 77.7395 5.357C77.7908 5.40833 77.8165 5.47433 77.8165 5.555V6.303C77.8165 6.38367 77.7908 6.44967 77.7395 6.501C77.6882 6.55233 77.6258 6.578 77.5525 6.578H76.1775V8.756C76.1775 9.03467 76.2252 9.25467 76.3205 9.416C76.4232 9.57 76.5992 9.647 76.8485 9.647H77.6515C77.7248 9.647 77.7872 9.67267 77.8385 9.724C77.8898 9.77533 77.9155 9.83767 77.9155 9.911V10.725C77.9155 10.8057 77.8898 10.8717 77.8385 10.923C77.7872 10.9743 77.7248 11 77.6515 11H76.6945ZM81.1302 11.11C80.6755 11.11 80.2832 11.0587 79.9532 10.956C79.6305 10.846 79.3665 10.714 79.1612 10.56C78.9632 10.406 78.8128 10.252 78.7102 10.098C78.6148 9.93667 78.5635 9.801 78.5562 9.691C78.5488 9.61033 78.5745 9.54433 78.6332 9.493C78.6918 9.44167 78.7505 9.416 78.8092 9.416H79.8762C79.8982 9.416 79.9202 9.41967 79.9422 9.427C79.9642 9.43433 79.9862 9.45267 80.0082 9.482C80.1035 9.548 80.2025 9.625 80.3052 9.713C80.4078 9.79367 80.5252 9.86333 80.6572 9.922C80.7965 9.98067 80.9688 10.01 81.1742 10.01C81.4162 10.01 81.6215 9.96233 81.7902 9.867C81.9588 9.76433 82.0432 9.62133 82.0432 9.438C82.0432 9.306 82.0028 9.196 81.9222 9.108C81.8488 9.02 81.7058 8.93933 81.4932 8.866C81.2805 8.79267 80.9652 8.712 80.5472 8.624C80.1512 8.536 79.8138 8.41867 79.5352 8.272C79.2565 8.12533 79.0475 7.942 78.9082 7.722C78.7688 7.49467 78.6992 7.22333 78.6992 6.908C78.6992 6.622 78.7872 6.347 78.9632 6.083C79.1465 5.819 79.4142 5.60267 79.7662 5.434C80.1182 5.258 80.5582 5.17 81.0862 5.17C81.4895 5.17 81.8415 5.22133 82.1422 5.324C82.4502 5.41933 82.7068 5.544 82.9122 5.698C83.1175 5.84467 83.2715 5.99867 83.3742 6.16C83.4842 6.314 83.5428 6.44967 83.5502 6.567C83.5575 6.64033 83.5355 6.70267 83.4842 6.754C83.4328 6.80533 83.3742 6.831 83.3082 6.831H82.3292C82.2925 6.831 82.2595 6.82733 82.2302 6.82C82.2008 6.80533 82.1752 6.787 82.1532 6.765C82.0652 6.70633 81.9735 6.64033 81.8782 6.567C81.7902 6.48633 81.6838 6.41667 81.5592 6.358C81.4345 6.29933 81.2732 6.27 81.0752 6.27C80.8332 6.27 80.6462 6.325 80.5142 6.435C80.3895 6.53767 80.3272 6.66967 80.3272 6.831C80.3272 6.93367 80.3602 7.029 80.4262 7.117C80.4922 7.205 80.6278 7.28567 80.8332 7.359C81.0385 7.43233 81.3502 7.50933 81.7682 7.59C82.2668 7.678 82.6628 7.81 82.9562 7.986C83.2495 8.162 83.4585 8.36733 83.5832 8.602C83.7152 8.82933 83.7812 9.075 83.7812 9.339C83.7812 9.68367 83.6785 9.99167 83.4732 10.263C83.2678 10.527 82.9672 10.736 82.5712 10.89C82.1825 11.0367 81.7022 11.11 81.1302 11.11Z" fill="#EBEAEB"/>
<path d="M22.3521 12.0039C22.3521 11.776 22.3361 11.5446 22.3032 11.3114L21.3565 4.64334C21.1266 2.81653 20.3796 0.043396 11.3366 0.043396C2.31594 0.043396 1.60647 2.79814 1.34451 4.64445L0.402339 11.3125C0.368377 11.5479 0.352081 11.7796 0.352081 12.0113C0.352081 14.4571 2.18857 16.5204 4.5242 16.5204C6.11181 16.5158 7.5662 15.5457 8.26258 14.0194L8.73762 12.9896H13.9941L14.4674 14.0194C15.1645 15.5457 16.6103 16.516 18.1989 16.5204C20.5414 16.5204 22.3521 14.4534 22.3521 12.0039ZM20.6998 12.0039C20.6998 12.6656 20.479 13.3114 20.0712 13.823C19.601 14.4166 18.9101 14.7565 18.1841 14.7565C18.1792 14.7565 18.1743 14.7564 18.1695 14.7564C17.2142 14.7564 16.3536 14.1771 15.9233 13.2437L15.2927 11.881C15.1369 11.478 14.7548 11.2242 14.3349 11.2242H8.39683C7.9779 11.2242 7.59511 11.4782 7.40922 11.8796L6.77859 13.2423C6.6178 13.591 5.96826 14.755 4.5094 14.755C3.78341 14.755 3.09666 14.4108 2.63057 13.8215C2.22265 13.3099 2.002 12.6641 2.002 12.0024C2.002 11.8613 2.01205 11.7194 2.03248 11.578L2.97912 4.90999C3.14726 3.73968 3.93556 2.82021 4.99236 2.56643C7.09219 2.06183 9.22988 1.80879 11.3366 1.80879C13.4433 1.80879 15.612 2.06164 17.7084 2.56717C18.7669 2.82003 19.5541 3.73968 19.7221 4.91183L20.6688 11.5799C20.7204 11.7207 20.6998 11.8605 20.6998 12.0039ZM14.0905 7.69342C13.4839 7.69342 13.0199 8.22231 13.0199 8.87035C13.0199 9.5184 13.5146 10.0473 14.0905 10.0473C14.6664 10.0473 15.161 9.5184 15.161 8.87035C15.161 8.22231 14.7273 7.69342 14.0905 7.69342ZM8.85811 6.22226L7.75793 6.22186L7.75656 5.04534C7.75656 4.55985 7.38547 4.16264 6.93108 4.16264C6.50699 4.16264 6.10423 4.55985 6.10423 5.04534L6.1055 6.2219L5.00268 6.22226C4.5483 6.22226 4.17721 6.61948 4.17721 7.10496C4.17721 7.59044 4.54795 7.98766 5.00268 7.98766L6.10561 7.9873L6.10423 9.16458C6.10423 9.65007 6.47669 10.0473 6.93108 10.0473C7.38547 10.0473 7.75656 9.65007 7.75656 9.16458L7.75782 7.98729L8.85811 7.98766C9.3125 7.98766 9.68496 7.59044 9.68496 7.10496C9.68427 6.61948 9.34348 6.22226 8.85811 6.22226ZM16.2936 4.16264C15.687 4.16264 15.223 4.69152 15.223 5.33957C15.223 5.98761 15.7177 6.5165 16.2936 6.5165C16.9001 6.5165 17.3641 5.98761 17.3641 5.33957C17.3641 4.69152 16.9304 4.16264 16.2936 4.16264Z" fill="#22D37D"/>
</svg>
