<svg width="16" height="12" viewBox="0 0 16 12" fill="none" xmlns="http://www.w3.org/2000/svg">
<path d="M13.3495 1.01348C13.3451 1.005 13.3379 0.998354 13.329 0.994733C12.3082 0.526213 11.2309 0.192122 10.1241 0.000819476C10.1141 -0.00105046 10.1037 0.000298533 10.0944 0.00467461C10.0852 0.00905069 10.0776 0.0162311 10.0726 0.0251945C9.92594 0.291523 9.79278 0.565086 9.67365 0.84484C8.48061 0.663683 7.26707 0.663683 6.07403 0.84484C5.95411 0.564375 5.81882 0.290744 5.66875 0.0251945C5.66361 0.0164258 5.65594 0.00941086 5.64675 0.0050632C5.63756 0.000715549 5.62727 -0.000763251 5.61723 0.000819476C4.51034 0.19172 3.43298 0.525837 2.41226 0.99476C2.40353 0.998465 2.39615 1.00479 2.39116 1.01287C0.349927 4.06211 -0.209245 7.03638 0.0650661 9.97381C0.0658377 9.98101 0.0680489 9.98798 0.071568 9.99431C0.0750872 10.0006 0.0798424 10.0062 0.085551 10.0106C1.27414 10.891 2.6036 11.5629 4.01718 11.9979C4.02714 12.0008 4.03777 12.0007 4.04765 11.9975C4.05752 11.9942 4.06617 11.988 4.07243 11.9797C4.37603 11.5665 4.64505 11.1289 4.87675 10.6715C4.87993 10.6652 4.88175 10.6583 4.88208 10.6513C4.88241 10.6443 4.88125 10.6372 4.87867 10.6307C4.8761 10.6241 4.87216 10.6182 4.86712 10.6133C4.86209 10.6084 4.85607 10.6046 4.84946 10.6022C4.42524 10.4398 4.01454 10.2441 3.62122 10.0168C3.61408 10.0126 3.60808 10.0067 3.60375 9.99963C3.59942 9.99256 3.59691 9.98453 3.59642 9.97626C3.59593 9.96798 3.59748 9.95971 3.60094 9.95218C3.60441 9.94465 3.60967 9.93809 3.61627 9.93307C3.6988 9.87122 3.78138 9.80688 3.86019 9.7419C3.86719 9.73613 3.87566 9.73243 3.88465 9.73122C3.89364 9.73001 3.90279 9.73133 3.91106 9.73504C6.48785 10.9114 9.27758 10.9114 11.8239 9.73504C11.8322 9.7311 11.8414 9.72959 11.8505 9.73069C11.8597 9.7318 11.8683 9.73547 11.8754 9.74128C11.9542 9.80627 12.0368 9.87122 12.1199 9.93307C12.1266 9.93804 12.1319 9.94456 12.1354 9.95206C12.1389 9.95956 12.1405 9.96782 12.1401 9.9761C12.1397 9.98437 12.1372 9.99241 12.1329 9.99951C12.1287 10.0066 12.1227 10.0126 12.1156 10.0168C11.7232 10.246 11.3121 10.4416 10.8868 10.6015C10.8802 10.6041 10.8742 10.6079 10.8692 10.6129C10.8641 10.6179 10.8603 10.6239 10.8577 10.6305C10.8552 10.6371 10.8541 10.6442 10.8545 10.6512C10.8549 10.6583 10.8567 10.6652 10.86 10.6715C11.0956 11.1264 11.3642 11.5634 11.6637 11.979C11.6698 11.9875 11.6784 11.9939 11.6883 11.9973C11.6982 12.0007 11.7089 12.0008 11.7189 11.9978C13.135 11.5643 14.4668 10.8923 15.6569 10.0106C15.6627 10.0064 15.6675 10.001 15.6711 9.99475C15.6746 9.9885 15.6768 9.98158 15.6774 9.97443C16.0058 6.57845 15.1276 3.62855 13.3495 1.01348ZM5.26157 8.18522C4.48577 8.18522 3.84653 7.47306 3.84653 6.59845C3.84653 5.72385 4.47337 5.01164 5.26157 5.01164C6.05593 5.01164 6.68898 5.73003 6.67658 6.5984C6.67658 7.47306 6.04972 8.18522 5.26157 8.18522ZM10.4934 8.18522C9.71762 8.18522 9.07838 7.47306 9.07838 6.59845C9.07838 5.72385 9.70522 5.01164 10.4934 5.01164C11.2878 5.01164 11.9208 5.73003 11.9084 6.5984C11.9084 7.47306 11.2878 8.18522 10.4934 8.18522Z" fill="#B9B6B9"/>
</svg>
