<svg width="141" height="40" viewBox="0 0 141 40" fill="none" xmlns="http://www.w3.org/2000/svg">
<path d="M0 19.8301C0 30.5786 0.0265834 39.3689 0.062028 39.3689C0.115195 39.3689 7.33703 38.0309 8.22315 37.8536L8.68393 37.765V30.5875V23.4188H11.4309H14.1778V22.1074C14.1778 21.3896 14.2044 19.5199 14.2399 17.9426L14.293 15.0893H11.4929H8.68393V11.9436V8.79793H11.9182C13.6993 8.79793 15.1526 8.78021 15.1526 8.75363C15.1526 8.65615 15.8615 1.08873 15.9058 0.707706L15.9589 0.291229H7.97503H0V19.8301Z" fill="#EBEAEB"/>
<path d="M132.545 1.43462L125.474 2.01945V19.6709V37.3223L125.766 37.3666C126.023 37.4109 139.714 38.4033 139.988 38.3945C140.068 38.3945 140.095 37.4552 140.095 34.0082V29.6219H137.082H134.069V26.4319V23.2419H136.639H139.209V19.4316V15.6213H136.55H133.892V13.0959V10.5705L134.096 10.535C134.202 10.5084 135.106 10.473 136.107 10.4375C137.109 10.411 138.411 10.3667 139.014 10.3312L140.095 10.278V5.55505V0.823196L139.855 0.832058C139.714 0.840919 136.426 1.10675 132.545 1.43462Z" fill="#EBEAEB"/>
<path d="M87.1494 2.65737C87.238 3.54348 88.2482 16.8972 88.2305 16.915C88.2216 16.9327 86.919 13.7338 85.3329 9.80831C83.7556 5.88282 82.4264 2.63078 82.391 2.56876C82.3378 2.47128 79.8921 2.9232 75.878 3.77387L75.497 3.85362V19.0859V34.3182H79.4402H83.3834L83.3391 33.6802C83.2505 32.4929 82.9227 22.6747 82.9581 22.2848C82.9847 21.9392 83.2505 22.5418 85.7671 28.6205C87.2912 32.3156 88.5849 35.3727 88.6204 35.4259C88.6735 35.4791 89.9052 35.3993 91.9965 35.2221C93.813 35.0626 95.3017 34.9208 95.3017 34.9119C95.3105 34.9031 95.2662 28.5142 95.2042 20.7164C95.1422 12.9186 95.089 5.55496 95.089 4.34098L95.0802 2.15228H91.0926H87.0963L87.1494 2.65737Z" fill="#EBEAEB"/>
<path d="M24.7669 2.69257C19.4679 3.04701 16.5526 6.67122 15.631 14.026C15.445 15.5501 15.3652 20.725 15.4981 22.5327C15.9412 28.3988 17.5273 32.2091 20.3452 34.1496C21.8604 35.1864 24.1378 35.7447 26.3885 35.6117C28.9494 35.47 30.695 34.7433 32.2634 33.1749C33.5483 31.8901 34.2483 30.6849 34.9218 28.6292C35.8611 25.7581 36.2864 21.4693 36.0737 17.0033C35.8345 12.0056 35.0813 8.89537 33.5306 6.51172C32.0508 4.24327 29.7114 2.88751 26.9822 2.71915C26.548 2.69257 26.0872 2.66599 25.9632 2.64826C25.8391 2.6394 25.3074 2.65712 24.7669 2.69257ZM26.0163 9.65743C26.6632 10.3575 26.9379 13.1487 26.9379 19.1211C26.9379 26.4759 26.4771 29.533 25.4669 28.8773C25.0327 28.5848 24.7049 27.1582 24.5454 24.7923C24.4302 23.0644 24.4302 15.1513 24.5454 13.4943C24.7137 11.155 25.015 9.86124 25.4669 9.5511C25.715 9.37387 25.7593 9.38274 26.0163 9.65743Z" fill="#EBEAEB"/>
<path d="M37.2168 18.8024V34.9385H41.2841H45.3425L45.3957 33.8132C45.4311 33.184 45.502 31.146 45.5552 29.2674C45.6084 27.3888 45.6792 25.7407 45.7147 25.6077C45.759 25.4217 46.14 26.6179 47.3097 30.6586C48.1604 33.5739 48.8781 35.993 48.9136 36.0284C48.9844 36.1082 57.2962 35.4525 57.3848 35.3639C57.4114 35.3284 56.4898 32.4308 55.3379 28.9041L53.2467 22.5063L53.6897 22.1164C55.1607 20.8316 56.3746 18.3505 56.7202 15.8959C56.8709 14.8237 56.7734 12.1654 56.543 11.1818C55.6569 7.32718 53.3087 4.33211 50.3136 3.21561C49.011 2.73711 49.1174 2.74597 42.9589 2.71052L37.2168 2.67508V18.8024ZM46.3527 10.3134C46.9818 10.6235 47.4958 11.421 47.7705 12.5198C47.9566 13.2553 47.93 15.5858 47.7262 16.3301C47.3451 17.7302 46.6717 18.5454 45.6615 18.8555L45.4577 18.9087V14.4781V10.0387L45.7501 10.1007C45.9008 10.1273 46.1755 10.2248 46.3527 10.3134Z" fill="#EBEAEB"/>
<path d="M56.9772 6.89292V11.0134H59.2368H61.4964V22.8873V34.7612H65.7497H70.0031V23.5962V12.4311H72.307H74.6109V8.3107V4.19027L74.4159 4.15482C74.2299 4.11052 57.3316 2.76362 57.0924 2.77248C57.0038 2.77248 56.9772 3.6586 56.9772 6.89292Z" fill="#EBEAEB"/>
<path d="M96.941 19.7415V35.8245H101.327H105.714V19.7415V3.65849H101.327H96.941V19.7415Z" fill="#EBEAEB"/>
<path d="M115.727 4.77514C110.924 5.03211 106.927 5.24478 106.848 5.24478C106.697 5.25364 106.688 5.51061 106.688 9.41838V13.5831H108.948H111.207V25.2355V36.8879H115.505H119.803V24.7482V12.6084H122.195H124.588V8.44365C124.588 6.14861 124.561 4.28777 124.526 4.28777C124.481 4.29663 120.529 4.5093 115.727 4.77514Z" fill="#EBEAEB"/>
</svg>
