<svg width="260" height="90" viewBox="0 0 260 90" fill="none" xmlns="http://www.w3.org/2000/svg">
<rect width="259.615" height="90" rx="3.46154" fill="#FFEE55"/>
<path d="M72.7994 18.1339C74.2666 24.8279 73.7707 30.7161 71.6913 31.2857C69.6121 31.8552 66.7368 26.8905 65.2696 20.1964C63.8021 13.5024 64.298 7.61405 66.3774 7.04449C68.4568 6.47494 71.3319 11.4398 72.7994 18.1339Z" fill="#0D0D0D"/>
<path d="M97.0301 23.889C93.7804 20.0967 87.3148 21.1245 82.589 26.1848C77.8635 31.2451 76.6668 38.4214 79.9165 42.2137C83.1665 46.0059 89.6318 44.978 94.3576 39.9177C99.0831 34.8577 100.28 27.6812 97.0301 23.889Z" fill="#0D0D0D"/>
<path d="M71.1831 81.958C73.2625 81.3885 73.6855 75.1671 72.1281 68.062C70.5706 60.9572 67.6223 55.6592 65.5432 56.2287C63.4637 56.7983 63.0408 63.0197 64.5982 70.1248C66.1556 77.2296 69.104 82.5276 71.1831 81.958Z" fill="#0D0D0D"/>
<path d="M49.9868 27.3611C55.9859 29.3088 60.3692 32.7261 59.7775 34.9936C59.1859 37.2609 53.8431 37.52 47.8442 35.5724C41.8453 33.6245 37.4618 30.2074 38.0535 27.9399C38.6452 25.6725 43.9879 25.4133 49.9868 27.3611Z" fill="#0D0D0D"/>
<path d="M88.9225 52.965C95.2895 55.0324 99.9715 58.5466 99.3798 60.8138C98.7881 63.0813 93.1468 63.2436 86.7798 61.1762C80.4127 59.1088 75.7308 55.5949 76.3224 53.3274C76.9141 51.0599 82.5551 50.8976 88.9225 52.965Z" fill="#0D0D0D"/>
<path d="M56.737 48.2077C55.2493 46.5098 50.3698 48.9811 45.8383 53.7273C41.3068 58.4735 38.8393 63.6976 40.3269 65.3955C41.8146 67.0932 46.694 64.6222 51.2256 59.876C55.7571 55.1298 58.2245 49.9057 56.737 48.2077Z" fill="#0D0D0D"/>
<path d="M123.329 28.0626V26.6105H117.893V65.3334H123.329V54.8996C123.329 53.7702 123.329 52.856 123.23 51.6191H123.329C125.306 55.1687 128.666 57.051 132.619 57.051C139.291 57.051 145.122 51.5116 145.122 41.2391C145.122 31.182 139.291 25.75 132.619 25.75C128.814 25.75 125.454 27.5786 123.329 31.182H123.23C123.329 29.9986 123.329 29.1382 123.329 28.0626ZM131.236 51.9418C126.195 51.888 123.279 47.209 123.279 41.1853C123.279 35.4845 126.195 30.9131 131.236 30.8594C136.178 30.8056 139.439 35.0005 139.439 41.2391C139.439 47.6392 136.178 51.9956 131.236 51.9418Z" fill="#0D0D0D"/>
<path d="M173.668 38.7115C173.668 31.2896 168.232 25.75 160.819 25.75C152.912 25.75 147.427 31.6122 147.427 41.4004C147.427 50.8121 152.813 57.051 160.819 57.051C167.391 57.051 172.284 52.856 173.42 47.1015H167.49C166.551 50.0055 163.982 51.9418 160.819 51.9418C156.767 51.9418 153.801 48.7686 153.159 43.4981H173.668V38.7115ZM160.819 30.8594C164.822 30.8594 167.589 33.8709 168.182 38.2272H153.208C153.9 34.0322 156.717 30.8594 160.819 30.8594Z" fill="#0D0D0D"/>
<path d="M177.664 56.1905H183.1V39.5182C183.1 33.8171 185.966 30.8594 190.414 30.8594H193.329V25.75H191.007C187.004 25.75 184.533 28.6542 183.1 31.182H183.001V26.6105H177.664V56.1905Z" fill="#0D0D0D"/>
<path d="M218.742 51.0276C218.001 51.0276 217.655 50.5432 217.655 49.5752V36.5601C217.655 30.3216 214.887 25.75 206.733 25.75C198.826 25.75 195.219 30.0527 194.823 36.1837H200.259C200.606 32.8491 203.027 30.8594 206.733 30.8594C209.896 30.8594 212.071 32.3651 212.071 34.7317C212.071 36.6677 210.835 37.8508 206.783 37.8508H204.608C198.135 37.8508 193.786 40.7013 193.786 47.209C193.786 54.0391 198.382 57.1585 203.768 57.1585C207.771 57.1585 211.181 55.2225 212.515 51.0813C212.664 54.0929 214.492 56.1905 217.951 56.1905H221.015V51.0276H218.742ZM212.219 42.4222C212.219 49.0912 208.908 51.9956 204.658 51.9956C200.951 51.9956 199.469 49.629 199.469 47.209C199.469 44.8963 200.754 43.014 204.707 43.014H205.498C209.303 43.014 211.675 41.5617 212.169 39.0342H212.219V42.4222Z" fill="#0D0D0D"/>
</svg>
