<svg width="11" height="12" viewBox="0 0 11 12" fill="none" xmlns="http://www.w3.org/2000/svg">
<path d="M10.3862 4.86784C9.36521 4.87028 8.36929 4.55188 7.53911 3.95762V8.10216C7.53883 8.86977 7.3042 9.61901 6.86661 10.2497C6.42902 10.8803 5.80932 11.3624 5.09037 11.6314C4.37142 11.9003 3.58749 11.9434 2.84341 11.7548C2.09932 11.5662 1.43055 11.1549 0.926509 10.576C0.422472 9.99703 0.107195 9.27801 0.0228358 8.51504C-0.0615232 7.75208 0.0890568 6.98154 0.454441 6.30647C0.819825 5.6314 1.3826 5.08396 2.06751 4.73736C2.75242 4.39077 3.52682 4.26153 4.28716 4.36693V6.45149C3.93922 6.34205 3.56561 6.34534 3.21966 6.46091C2.87371 6.57647 2.57312 6.7984 2.36082 7.09498C2.14852 7.39157 2.03537 7.74766 2.03752 8.11239C2.03966 8.47713 2.15701 8.83186 2.37278 9.12592C2.58856 9.41999 2.89174 9.63836 3.23903 9.74984C3.58632 9.86132 3.95995 9.86021 4.30657 9.74668C4.65319 9.63315 4.95507 9.41299 5.16911 9.11766C5.38314 8.82232 5.49839 8.4669 5.49838 8.10216V0H7.53911C7.53769 0.172335 7.55213 0.344435 7.58224 0.514125C7.65315 0.892931 7.8006 1.25329 8.01556 1.57316C8.23052 1.89302 8.50847 2.16568 8.83242 2.37444C9.2933 2.67918 9.83364 2.8416 10.3862 2.84148V4.86784Z" fill="#B9B6B9"/>
</svg>
