<svg width="15" height="12" viewBox="0 0 15 12" fill="none" xmlns="http://www.w3.org/2000/svg">
<path d="M13.2454 2.99061C13.2548 3.12186 13.2548 3.25313 13.2548 3.38437C13.2548 7.38748 10.2104 12 4.6462 12C2.93197 12 1.33954 11.5031 0 10.6406C0.24356 10.6687 0.47772 10.6781 0.73065 10.6781C2.1451 10.6781 3.44718 10.2 4.48695 9.38439C3.15679 9.35625 2.04207 8.48438 1.65801 7.28437C1.84537 7.31248 2.0327 7.33124 2.22944 7.33124C2.50108 7.33124 2.77275 7.29372 3.02565 7.22813C1.63929 6.94686 0.599485 5.72812 0.599485 4.25624V4.21876C1.00227 4.44376 1.47067 4.58438 1.9671 4.60311C1.15214 4.05935 0.618227 3.13124 0.618227 2.08123C0.618227 1.51874 0.768077 1.00311 1.03038 0.553111C2.51979 2.39061 4.7586 3.59059 7.26902 3.72186C7.22219 3.49686 7.19408 3.26251 7.19408 3.02813C7.19408 1.35936 8.54299 0 10.2197 0C11.0909 0 11.8777 0.365624 12.4304 0.95625C13.1142 0.825006 13.7699 0.571868 14.3507 0.225002C14.1259 0.928142 13.6482 1.51877 13.0206 1.89374C13.6295 1.82815 14.2196 1.65936 14.7629 1.42501C14.3508 2.02499 13.8356 2.55934 13.2454 2.99061Z" fill="#B9B6B9"/>
</svg>
