<svg width="103" height="70" viewBox="0 0 103 70" fill="none" xmlns="http://www.w3.org/2000/svg">
<g clip-path="url(#clip0_28_380)">
<path d="M24.4974 0.938997C24.8114 0.751777 25.0115 1.13018 25.1809 1.32929C36.0803 14.9646 46.9925 28.5901 57.8909 42.2255C58.1148 42.4196 57.9454 42.8347 57.6432 42.7901C52.4249 42.796 47.2055 42.7921 41.9871 42.7921C41.5691 42.797 41.1689 42.589 40.9123 42.2631C35.4978 35.4984 30.0862 28.7308 24.6717 21.9651C24.4419 21.6917 24.323 21.3381 24.3379 20.9824C24.3379 14.4466 24.3399 7.90972 24.3359 1.37386C24.3389 1.21933 24.3329 1.01923 24.4974 0.938997Z" fill="#FF4655"/>
<path d="M74.9061 0.907152C75.129 0.822952 75.3747 1.02899 75.342 1.26277C75.3499 7.8016 75.341 14.3404 75.3459 20.8793C75.3608 21.2497 75.2796 21.6331 75.0388 21.9243C73.3935 23.9828 71.7462 26.0402 70.1008 28.0976C69.8264 28.4543 69.3777 28.6514 68.9289 28.6286C63.7452 28.6236 58.5605 28.6316 53.3768 28.6246C53.0707 28.6722 52.8964 28.2591 53.1222 28.06C60.3109 19.0665 67.5055 10.076 74.6981 1.08447C74.7526 1.0072 74.8219 0.947765 74.9061 0.907152Z" fill="#FF4655"/>
<path d="M39.0659 54.0371C40.6389 53.7954 42.2902 54.0737 43.6889 54.8385C45.045 55.5725 46.1594 56.7443 46.8221 58.1381C47.5571 59.6666 47.7285 61.4536 47.3134 63.0979C46.9192 64.6898 45.9653 66.1341 44.6636 67.1316C42.4378 68.8849 39.1758 69.1434 36.6974 67.7735C35.2709 67.0078 34.1139 65.7567 33.4611 64.2747C32.639 62.4342 32.6281 60.252 33.4294 58.4016C34.3953 56.1074 36.6003 54.3927 39.0659 54.0371ZM39.4631 56.5135C37.8841 56.7523 36.4953 57.8736 35.8762 59.3387C35.2363 60.7968 35.3621 62.565 36.215 63.9112C36.9143 65.0454 38.107 65.8716 39.4264 66.0835C40.7677 66.3193 42.1961 65.9042 43.2184 65.0088C44.3843 64.0112 45.0153 62.4382 44.8836 60.9107C44.7845 59.5477 44.0851 58.2401 42.9945 57.413C42.0059 56.6482 40.6983 56.3105 39.4631 56.5135Z" fill="#FF4655"/>
<path d="M0.184525 54.3747C0.796704 54.2083 1.44355 54.343 2.0696 54.2955C2.29248 54.3262 2.63126 54.2113 2.75707 54.4629C2.80065 54.7908 2.77292 55.1226 2.77688 55.4535C2.77688 58.3371 2.77589 61.2216 2.77688 64.1052C5.30484 60.9462 7.82984 57.7853 10.3548 54.6243C10.4866 54.4599 10.6659 54.3143 10.8868 54.3103C11.6119 54.2786 12.338 54.3143 13.0641 54.2965C13.3355 54.3014 13.6366 54.2499 13.8684 54.4302C13.0235 55.5436 12.128 56.6184 11.2622 57.716C8.66688 60.9651 6.07056 64.2132 3.47425 67.4613C3.28108 67.6971 3.11169 67.9566 2.88089 68.1607C2.65405 68.3479 2.33805 68.2894 2.06663 68.3043C1.43959 68.2825 0.808591 68.338 0.184525 68.2607V54.3747Z" fill="#FF4655"/>
<path d="M17.7376 54.878C18.0071 54.5125 18.4489 54.2906 18.9036 54.3005C19.4642 54.3015 20.0259 54.2906 20.5866 54.3055C20.7797 54.2847 20.8877 54.4848 20.8629 54.6552C20.8629 59.0831 20.8629 63.512 20.8629 67.9399C20.8887 68.1102 20.7847 68.3183 20.5866 68.2965C19.8922 68.3044 19.1978 68.3044 18.5034 68.2955C18.2488 68.3024 18.0477 68.1231 17.905 67.9319C16.7045 66.4243 15.4979 64.9216 14.2973 63.4139C13.075 64.9364 11.8595 66.4639 10.6401 67.9894C10.5094 68.1568 10.3202 68.2975 10.0983 68.2945C9.30283 68.3123 8.50641 68.2905 7.70998 68.3034C7.51483 68.2905 7.27016 68.3529 7.14931 68.1499C10.6579 63.7101 14.2141 59.3059 17.7376 54.878ZM15.7594 61.301C16.5836 62.3262 17.3959 63.3604 18.226 64.3797C18.2319 62.3243 18.23 60.2698 18.228 58.2143C17.4028 59.2416 16.5806 60.2708 15.7594 61.301Z" fill="#FF4655"/>
<path d="M24.008 54.6523C23.9892 54.4958 24.0744 54.3036 24.2557 54.3076C24.954 54.2907 25.6554 54.2977 26.3547 54.3046C26.5548 54.2828 26.6796 54.4809 26.6479 54.6642C26.6519 58.3749 26.6499 62.0856 26.6489 65.7973C28.5905 65.8043 30.532 65.7924 32.4725 65.8023C32.639 65.7666 32.743 65.9776 32.6112 66.0896C32.106 66.7404 31.584 67.3793 31.0699 68.0252C30.9144 68.2352 30.6509 68.3204 30.3973 68.3015C28.3507 68.2946 26.3032 68.3095 24.2567 68.2946C24.0684 68.3025 23.9902 68.0985 24.008 67.941C24.008 63.5121 24.007 59.0822 24.008 54.6523Z" fill="#FF4655"/>
<path d="M49.8791 54.6574C49.8335 54.4533 49.9979 54.2681 50.205 54.3017C53.7433 54.2978 57.2807 54.2998 60.8181 54.3008C60.9815 54.278 61.1747 54.38 61.1588 54.5662C61.1697 55.5251 61.1608 56.485 61.1628 57.4439C61.1836 57.6727 61.0627 57.8738 60.9221 58.0422C59.9008 59.3052 58.8963 60.581 57.8721 61.8421C57.8215 61.9312 57.6531 62.0491 57.7809 62.1521C59.3282 64.0976 60.8884 66.0342 62.4337 67.9807C62.5456 68.0738 62.5476 68.2957 62.3644 68.2908C61.4471 68.3106 60.5288 68.3007 59.6115 68.2957C59.2519 68.3007 59.0489 67.9668 58.8498 67.7212C57.4293 65.9391 56.0078 64.158 54.5823 62.3809C54.4764 62.2502 54.3139 62.061 54.4615 61.8995C55.8037 60.1957 57.1707 58.5097 58.5199 56.8099C56.5219 56.801 54.5229 56.8267 52.5259 56.797C52.4902 60.5414 52.5279 64.2878 52.5071 68.0322C52.5299 68.2066 52.3496 68.3225 52.1931 68.2987C51.4997 68.2987 50.8062 68.3096 50.1128 68.2937C49.9286 68.2957 49.8543 68.0887 49.8781 67.9351C49.8791 63.5092 49.8781 59.0833 49.8791 54.6574Z" fill="#FF4655"/>
<path d="M64.6873 54.6642C64.6556 54.4859 64.7715 54.2819 64.9716 54.3046C65.6323 54.2928 66.295 54.2997 66.9567 54.3017C67.2043 54.2868 67.4441 54.4027 67.5897 54.6038C70.8913 58.7345 74.1919 62.8662 77.4935 66.997C77.7778 67.3783 78.1186 67.7211 78.3652 68.1302C78.3415 68.1688 78.2939 68.2461 78.2701 68.2847C77.4698 68.3253 76.6664 68.2847 75.865 68.3026C75.549 68.3075 75.1666 68.3343 74.9576 68.045C73.7174 66.5066 72.4891 64.9583 71.2548 63.415C70.0325 64.9366 68.816 66.464 67.5976 67.9885C67.4669 68.1579 67.2757 68.2966 67.0538 68.2956C66.3624 68.3055 65.6709 68.3026 64.9805 68.2976C64.7744 68.3263 64.6546 68.1183 64.6873 67.937C64.6873 63.5131 64.6883 59.0882 64.6873 54.6642ZM67.3232 58.2214C67.3202 60.2759 67.3202 62.3293 67.3232 64.3838C68.1474 63.3576 68.9676 62.3284 69.7888 61.3001C68.9656 60.2749 68.1513 59.2417 67.3232 58.2214Z" fill="#FF4655"/>
<path d="M76.3286 54.6681C76.3078 54.5145 76.3761 54.3144 76.5574 54.3105C77.2162 54.2837 77.8759 54.3065 78.5346 54.2996C78.7902 54.2827 79.0576 54.3669 79.2132 54.5809C81.754 57.7527 84.2849 60.9325 86.8278 64.1024C86.8278 60.9553 86.8268 57.8082 86.8278 54.6601C86.7852 54.462 86.9397 54.2699 87.1467 54.3016C87.8441 54.3025 88.5415 54.2857 89.2379 54.3105C89.4162 54.3174 89.4806 54.5155 89.4607 54.6681C89.4607 59.09 89.4607 63.512 89.4607 67.9339C89.4815 68.0845 89.4152 68.2886 89.2349 68.2915C88.5425 68.3114 87.8481 68.2975 87.1557 68.2985C86.9268 68.3074 86.7099 68.1974 86.5752 68.0162C84.0373 64.8473 81.5084 61.6705 78.9685 58.5036C78.9655 60.3609 78.9734 62.2193 78.9655 64.0766C79.0141 64.242 78.7783 64.3837 78.6783 64.2331C77.9492 63.3485 77.2449 62.4432 76.5257 61.5506C76.3652 61.3753 76.3137 61.1395 76.3256 60.9087C76.3296 58.8285 76.3246 56.7483 76.3286 54.6681Z" fill="#FF4655"/>
<path d="M91.2824 54.565C91.2616 54.3847 91.4538 54.2807 91.6113 54.3015C94.5196 54.2965 97.428 54.3015 100.336 54.2995C100.588 54.2837 100.851 54.3659 101.005 54.5779C101.52 55.2198 102.04 55.8597 102.546 56.5095C102.68 56.6185 102.58 56.8344 102.412 56.8047C100.891 56.8166 99.3695 56.8047 97.848 56.8096C97.8411 60.5184 97.8569 64.2271 97.8559 67.9359C97.8916 68.1132 97.7697 68.3172 97.5716 68.2964C96.8772 68.3024 96.1818 68.3054 95.4884 68.2954C95.3408 68.3083 95.2121 68.1776 95.2269 68.032C95.2022 64.2915 95.2259 60.5501 95.2061 56.8096C94.0065 56.8067 92.8059 56.8136 91.6073 56.8077C91.4478 56.8265 91.2577 56.7165 91.2824 56.5362C91.2725 55.8795 91.2715 55.2217 91.2824 54.565Z" fill="#FF4655"/>
</g>
<defs>
<clipPath id="clip0_28_380">
<rect width="102.525" height="70" fill="white" transform="translate(0.184479)"/>
</clipPath>
</defs>
</svg>
