<svg width="18" height="12" viewBox="0 0 18 12" fill="none" xmlns="http://www.w3.org/2000/svg">
<path d="M16.6848 1.87759C16.4888 1.13853 15.9114 0.556469 15.1782 0.358938C13.8493 0 8.52044 0 8.52044 0C8.52044 0 3.19164 0 1.86268 0.358938C1.12951 0.5565 0.55207 1.13853 0.356086 1.87759C0 3.21719 0 6.01213 0 6.01213C0 6.01213 0 8.80706 0.356086 10.1467C0.55207 10.8857 1.12951 11.4435 1.86268 11.6411C3.19164 12 8.52044 12 8.52044 12C8.52044 12 13.8493 12 15.1782 11.6411C15.9114 11.4435 16.4888 10.8857 16.6848 10.1467C17.0409 8.80706 17.0409 6.01213 17.0409 6.01213C17.0409 6.01213 17.0409 3.21719 16.6848 1.87759ZM6.77762 8.54972V3.47453L11.2315 6.01219L6.77762 8.54972Z" fill="#B9B6B9"/>
</svg>
